<?xml version="1.0" standalone="no"?>
<!DOCTYPE svg PUBLIC "-//W3C//DTD SVG 20010904//EN"
 "http://www.w3.org/TR/2001/REC-SVG-20010904/DTD/svg10.dtd">
<svg version="1.0" xmlns="http://www.w3.org/2000/svg"
 width="225.000000pt" height="225.000000pt" viewBox="0 0 225.000000 225.000000"
 preserveAspectRatio="xMidYMid meet">

<g transform="translate(0.000000,225.000000) scale(0.100000,-0.100000)"
fill="#000000" stroke="none">
<path d="M1072 1728 c-35 -25 -102 -113 -102 -135 0 -10 -20 -13 -79 -13 -57
0 -82 -4 -91 -15 -9 -11 -11 -51 -8 -144 4 -124 5 -131 41 -204 21 -42 51 -87
68 -101 29 -25 37 -26 145 -26 64 0 124 -5 134 -10 50 -27 70 -236 33 -335
-18 -50 -19 -50 -68 -53 -79 -5 -91 1 -111 60 -15 47 -22 167 -12 233 3 19 -3
20 -108 23 l-111 3 -7 -32 c-27 -134 18 -301 109 -407 l37 -42 183 0 183 0 37
43 c101 116 138 283 100 445 -19 78 -54 149 -98 196 l-34 36 -157 0 -157 0
-19 43 c-11 23 -20 57 -20 75 0 32 1 32 48 32 47 0 47 0 72 53 33 70 56 70 93
0 27 -52 29 -53 72 -53 43 0 44 0 47 -37 l3 -38 80 0 80 0 3 119 c2 89 -1 121
-10 128 -7 4 -45 8 -85 8 -63 0 -72 2 -78 20 -12 36 -82 116 -118 133 -46 22
-56 21 -95 -5z"/>
</g>
</svg>
